<svg width="24" height="24" viewBox="0 0 24 24" fill="none" xmlns="http://www.w3.org/2000/svg">
<g clip-path="url(#clip0)">
<path fill-rule="evenodd" clip-rule="evenodd" d="M11.9996 0.298972C5.37349 0.298972 0 5.67156 0 12.2985C0 17.6007 3.43793 22.0972 8.20598 23.6846C8.80613 23.7958 9.0267 23.4237 9.0267 23.1066C9.0267 22.8205 9.01474 21.8753 9.00986 20.8734C5.67116 21.5993 4.96736 19.4569 4.96736 19.4569C4.42166 18.0697 3.63503 17.7008 3.63503 17.7008C2.54632 16.9553 3.71786 16.9717 3.71786 16.9717C4.92259 17.0559 5.55686 18.2075 5.55686 18.2075C6.62786 20.042 8.36497 19.511 9.04928 19.2049C9.15735 18.4294 9.4674 17.8996 9.81109 17.5998C7.14559 17.2973 4.3437 16.2679 4.3437 11.6695C4.3437 10.3598 4.8132 9.28885 5.57989 8.44903C5.45501 8.14611 5.04398 6.92631 5.6955 5.27376C5.6955 5.27376 6.70312 4.95088 8.99659 6.50376C9.95329 6.23845 10.9795 6.10468 11.9987 6.10026C13.0187 6.10468 14.0467 6.238 15.0048 6.50376C17.2951 4.95178 18.3018 5.27376 18.3018 5.27376C18.9543 6.92676 18.545 8.14742 18.4201 8.44907C19.1895 9.28885 19.655 10.3598 19.655 11.6695C19.655 16.2785 16.8469 17.2919 14.1756 17.5891C14.6061 17.9612 14.9906 18.6916 14.9906 19.8104C14.9906 21.4151 14.9769 22.7084 14.9769 23.103C14.9769 23.4224 15.193 23.7958 15.8016 23.6788C20.5669 22.0905 24.0005 17.5935 24.0005 12.2945C24.0005 5.66841 18.6279 0.294922 12.0005 0.294922L11.9996 0.298934L11.9996 0.298972Z" fill="white"/>
</g>
<defs>
<clipPath id="clip0">
<rect width="24" height="24" fill="white"/>
</clipPath>
</defs>
</svg>
