<svg width="24" height="24" viewBox="0 0 24 24" fill="none" xmlns="http://www.w3.org/2000/svg">
<g clip-path="url(#clip0)">
<path fill-rule="evenodd" clip-rule="evenodd" d="M12.2373 10.2838V14.3998H19.0432C18.7668 16.1666 16.985 19.5749 12.2373 19.5749C8.14076 19.5749 4.7985 16.1817 4.7985 11.9997C4.7985 7.81809 8.14076 4.42487 12.2373 4.42487C14.5671 4.42487 16.1284 5.41922 17.0195 6.27583L20.2776 3.13952C18.187 1.18093 15.4777 -0.0012207 12.2391 -0.0012207C5.60595 -0.0012207 0.238647 5.36608 0.238647 11.9992C0.238647 18.6324 5.60595 23.9997 12.2391 23.9997C19.1632 23.9997 23.7612 19.1293 23.7612 12.2752C23.7612 11.4877 23.677 10.888 23.5734 10.2878L12.2391 10.2829L12.2373 10.2838V10.2838Z" fill="white"/>
</g>
<defs>
<clipPath id="clip0">
<rect width="24" height="24" fill="white"/>
</clipPath>
</defs>
</svg>
