<svg version="1.2" baseProfile="tiny-ps" xmlns="http://www.w3.org/2000/svg" viewBox="0 0 2100 600" width="2100" height="600">
	<title>SL_112520_38300_10-ai</title>
	<defs>
		<linearGradient id="grd1" gradientUnits="userSpaceOnUse"  x1="265.449" y1="183.684" x2="265.449" y2="143.684">
			<stop offset="0" stop-color="#ffffff"  />
			<stop offset="1" stop-color="#595959"  />
		</linearGradient>
	</defs>
	<style>
		tspan { white-space:pre }
		.shp0 { fill: #4d9c00 } 
		.shp1 { fill: #61c200 } 
		.shp2 { fill: url(#grd1) } 
		.shp3 { fill: #595959 } 
		.shp4 { fill: #ffffff } 
	</style>
	<g id="Layer 1">
		<g id="&lt;Group&gt;">
			<g id="&lt;Group&gt;">
				<path id="&lt;Path&gt;" class="shp0" d="M238.91 559.73C253.57 575 277.33 575 291.99 559.73L513.01 329.51C520.34 321.87 524 311.87 524 301.86L524 301.85C524 279.99 524 269.06 524 269.06C524 259.05 520.33 249.05 513 241.42L291.99 11.19C285.62 4.56 277.53 0.81 269.22 -0.06C258.4 -1.19 247.2 2.56 238.91 11.19L17.89 241.42C10.57 249.05 6.9 259.05 6.9 269.06C6.9 290.93 6.9 301.86 6.9 301.86C6.9 311.87 10.56 321.87 17.89 329.51L238.91 559.73Z" />
				<path id="&lt;Path&gt;" class="shp1" d="M291.99 11.19C277.33 -4.08 253.57 -4.08 238.91 11.19L17.89 241.42C3.24 256.69 3.24 281.44 17.89 296.71L238.91 526.93C253.57 542.2 277.33 542.2 291.99 526.93L513 296.71C527.66 281.44 527.66 256.69 513 241.42L291.99 11.19Z" />
				<g id="&lt;Group&gt;" style="opacity: 0.2">
					<g id="&lt;Group&gt;">
						<path id="&lt;Mesh&gt;" class="shp2" d="M163.6 279.79C164.69 272.96 165.56 262.36 170.88 249.51C175.8 236.61 185.24 221.56 200.54 207.87C216.16 194.86 238.3 183.77 265.45 183.68C265.45 177.02 265.45 173.68 265.45 173.68C235.8 173.76 211.49 185.9 194.45 200.15C177.7 215.07 167.42 231.56 162.01 245.68C156.21 259.75 155.2 271.34 154.04 278.82C153.75 286.47 153.48 290.29 153.48 290.29C153.48 290.29 156.68 290.29 163.08 290.29C163.08 290.29 163.36 286.8 163.6 279.79ZM163.08 290.29C156.68 290.29 153.48 290.29 153.48 290.29C153.48 290.31 153.48 290.33 153.48 290.35C153.48 290.35 156.68 290.35 163.08 290.35L163.08 290.29ZM193.06 365.72C173.96 345.89 163.04 318.43 163.08 290.35C156.68 290.35 153.48 290.35 153.48 290.35C153.42 321.02 165.4 351.15 186.28 372.79C207.05 394.54 235.98 407.02 265.42 406.95C265.42 406.95 265.42 403.62 265.42 396.95C238.47 397 212.1 385.62 193.06 365.72ZM265.42 396.95C265.42 403.62 265.42 406.95 265.42 406.95C265.44 406.95 265.46 406.95 265.48 406.95C265.48 406.95 265.48 403.62 265.48 396.95L265.42 396.95ZM337.84 365.72C318.8 385.62 292.43 397 265.48 396.95C265.48 403.62 265.48 406.95 265.48 406.95C294.92 407.02 323.85 394.53 344.62 372.79C365.5 351.15 377.48 321.02 377.42 290.35C377.42 290.35 374.22 290.35 367.82 290.35C367.86 318.43 356.94 345.89 337.84 365.72ZM367.82 290.35C374.22 290.35 377.42 290.35 377.42 290.35C377.42 290.33 377.42 290.31 377.42 290.29C377.42 290.29 374.22 290.29 367.82 290.29L367.82 290.35ZM330.36 207.87C345.66 221.56 355.1 236.61 360.02 249.51C365.34 262.36 366.21 272.96 367.3 279.79C367.54 286.8 367.82 290.29 367.82 290.29C374.22 290.29 377.42 290.29 377.42 290.29C377.42 290.29 377.15 286.47 376.86 278.82C375.7 271.34 374.69 259.75 368.89 245.68C363.48 231.56 353.2 215.07 336.45 200.15C319.41 185.9 295.1 173.76 265.45 173.68C265.45 173.68 265.45 177.02 265.45 183.68C292.59 183.77 314.74 194.86 330.36 207.87ZM154.04 278.82C155.2 271.34 156.21 259.75 162.01 245.68C167.42 231.56 177.7 215.07 194.45 200.15C211.49 185.9 235.8 173.76 265.45 173.68C265.45 170.35 265.45 167.02 265.45 163.68C249.47 163.73 234.68 167.02 221.75 172.27C208.79 177.53 197.67 184.64 188.35 192.42C170.15 208.59 159.03 226.52 153.15 241.84C146.86 257.14 145.71 269.72 144.49 277.85C144.08 286.14 143.88 290.28 143.88 290.28C147.08 290.29 150.28 290.29 153.48 290.29C153.48 290.29 153.75 286.47 154.04 278.82ZM153.48 290.29C150.28 290.29 147.08 290.29 143.88 290.28C143.88 290.31 143.88 290.33 143.88 290.35C147.08 290.35 150.28 290.35 153.48 290.35C153.48 290.33 153.48 290.31 153.48 290.29ZM186.28 372.79C165.4 351.15 153.42 321.02 153.48 290.35C150.28 290.35 147.08 290.35 143.88 290.35C143.8 323.61 156.84 356.41 179.49 379.86C202 403.45 233.49 417.04 265.42 416.95C265.42 413.62 265.42 410.29 265.42 406.95C235.98 407.02 207.05 394.54 186.28 372.79ZM265.42 406.95C265.42 410.29 265.42 413.62 265.42 416.95C265.44 416.95 265.46 416.95 265.48 416.95C265.48 413.62 265.48 410.29 265.48 406.95C265.46 406.95 265.44 406.95 265.42 406.95ZM344.62 372.79C323.85 394.53 294.92 407.02 265.48 406.95C265.48 410.29 265.48 413.62 265.48 416.95C297.41 417.04 328.89 403.45 351.41 379.86C374.06 356.41 387.1 323.61 387.02 290.35C383.82 290.35 380.62 290.35 377.42 290.35C377.48 321.02 365.5 351.15 344.62 372.79ZM377.42 290.35C380.62 290.35 383.82 290.35 387.02 290.35C387.02 290.33 387.02 290.31 387.02 290.28C383.82 290.29 380.62 290.29 377.42 290.29C377.42 290.31 377.42 290.33 377.42 290.35ZM336.45 200.15C353.2 215.07 363.48 231.56 368.89 245.68C374.69 259.75 375.7 271.34 376.86 278.82C377.15 286.47 377.42 290.29 377.42 290.29C380.62 290.29 383.82 290.29 387.02 290.28C387.02 290.28 386.82 286.14 386.41 277.85C385.19 269.72 384.04 257.14 377.75 241.84C371.87 226.52 360.74 208.59 342.55 192.42C333.23 184.64 322.11 177.53 309.15 172.27C296.22 167.02 281.43 163.73 265.45 163.68C265.45 167.02 265.45 170.35 265.45 173.68C295.1 173.76 319.41 185.9 336.45 200.15ZM144.49 277.85C145.71 269.72 146.86 257.14 153.15 241.84C159.03 226.52 170.15 208.59 188.35 192.42C197.67 184.64 208.79 177.53 221.75 172.27C234.68 167.02 249.47 163.73 265.45 163.68C265.45 160.35 265.45 157.02 265.45 153.68C248.24 153.73 232.25 157.28 218.29 162.94C204.3 168.62 192.3 176.3 182.26 184.69C162.61 202.11 150.65 221.48 144.28 238.01C137.51 254.53 136.22 268.1 134.93 276.88C134.5 285.81 134.28 290.28 134.28 290.28C137.48 290.28 140.68 290.28 143.88 290.28C143.88 290.28 144.08 286.14 144.49 277.85ZM143.88 290.28C140.68 290.28 137.48 290.28 134.28 290.28C134.28 290.31 134.28 290.33 134.28 290.36C137.48 290.36 140.68 290.35 143.88 290.35C143.88 290.33 143.88 290.31 143.88 290.28ZM179.49 379.86C156.84 356.41 143.8 323.61 143.88 290.35C140.68 290.35 137.48 290.36 134.28 290.36C134.31 308.27 137.7 326.11 144.28 342.62C150.84 359.13 160.56 374.28 172.7 386.93C184.85 399.58 199.39 409.71 215.24 416.54C231.09 423.39 248.22 426.92 265.41 426.95C265.41 423.62 265.42 420.29 265.42 416.95C233.49 417.04 202 403.45 179.49 379.86ZM265.42 416.95C265.42 420.29 265.41 423.62 265.41 426.95C265.44 426.95 265.46 426.95 265.49 426.95C265.48 423.62 265.48 420.29 265.48 416.95C265.46 416.95 265.44 416.95 265.42 416.95ZM351.41 379.86C328.89 403.45 297.41 417.04 265.48 416.95C265.48 420.29 265.48 423.62 265.49 426.95C282.68 426.92 299.81 423.39 315.66 416.54C331.51 409.71 346.05 399.58 358.2 386.93C370.34 374.28 380.06 359.13 386.62 342.62C393.2 326.11 396.59 308.27 396.62 290.36C393.42 290.36 390.22 290.35 387.02 290.35C387.1 323.61 374.06 356.41 351.41 379.86ZM387.02 290.35C390.22 290.35 393.42 290.36 396.62 290.36C396.62 290.33 396.62 290.31 396.62 290.28C393.42 290.28 390.22 290.28 387.02 290.28C387.02 290.31 387.02 290.33 387.02 290.35ZM309.15 172.27C322.11 177.53 333.23 184.64 342.55 192.42C360.74 208.59 371.87 226.52 377.75 241.84C384.04 257.14 385.19 269.72 386.41 277.85C386.82 286.14 387.02 290.28 387.02 290.28C390.22 290.28 393.42 290.28 396.62 290.28C396.62 290.28 396.4 285.81 395.97 276.88C394.68 268.1 393.39 254.53 386.62 238.01C380.25 221.48 368.29 202.11 348.64 184.69C338.6 176.3 326.6 168.62 312.61 162.94C298.65 157.28 282.66 153.73 265.45 153.68C265.45 157.02 265.45 160.35 265.45 163.68C281.43 163.73 296.22 167.02 309.15 172.27ZM134.93 276.88C136.22 268.1 137.51 254.53 144.28 238.01C150.65 221.48 162.61 202.11 182.26 184.69C192.3 176.3 204.3 168.62 218.29 162.94C232.25 157.28 248.24 153.73 265.45 153.68C265.45 150.35 265.45 147.02 265.45 143.68C247 143.72 229.83 147.53 214.83 153.61C199.81 159.71 186.93 167.95 176.17 176.97C155.07 195.63 142.26 216.43 135.41 234.18C128.16 251.92 126.72 266.49 125.38 275.91C124.91 285.49 124.68 290.28 124.68 290.28C127.88 290.28 131.08 290.28 134.28 290.28C134.28 290.28 134.5 285.81 134.93 276.88ZM134.28 290.28C131.08 290.28 127.88 290.28 124.68 290.28C124.68 290.31 124.68 290.33 124.68 290.36C127.88 290.36 131.08 290.36 134.28 290.36C134.28 290.33 134.28 290.31 134.28 290.28ZM215.24 416.54C199.39 409.71 184.85 399.58 172.7 386.93C160.56 374.28 150.84 359.13 144.28 342.62C137.7 326.11 134.31 308.27 134.28 290.36C131.08 290.36 127.88 290.36 124.68 290.36C124.71 309.55 128.34 328.73 135.41 346.45C142.45 364.18 152.89 380.43 165.91 394.01C178.94 407.57 194.54 418.44 211.56 425.78C228.58 433.14 246.99 436.92 265.41 436.95C265.41 433.62 265.41 430.29 265.41 426.95C248.22 426.92 231.09 423.39 215.24 416.54ZM265.41 426.95C265.41 430.29 265.41 433.62 265.41 436.95C265.44 436.95 265.46 436.95 265.49 436.95C265.49 433.62 265.49 430.29 265.49 426.95C265.46 426.95 265.44 426.95 265.41 426.95ZM386.62 342.62C380.06 359.13 370.34 374.28 358.2 386.93C346.05 399.58 331.51 409.71 315.66 416.54C299.81 423.39 282.68 426.92 265.49 426.95C265.49 430.29 265.49 433.62 265.49 436.95C283.91 436.92 302.32 433.14 319.33 425.78C336.35 418.44 351.95 407.57 364.99 394.01C378.01 380.43 388.45 364.18 395.49 346.45C402.56 328.73 406.19 309.55 406.22 290.36C403.02 290.36 399.82 290.36 396.62 290.36C396.59 308.27 393.2 326.11 386.62 342.62ZM396.62 290.36C399.82 290.36 403.02 290.36 406.22 290.36C406.22 290.33 406.22 290.31 406.22 290.28C403.02 290.28 399.82 290.28 396.62 290.28C396.62 290.31 396.62 290.33 396.62 290.36ZM312.61 162.94C326.6 168.62 338.6 176.3 348.64 184.69C368.29 202.11 380.25 221.48 386.62 238.01C393.39 254.53 394.68 268.1 395.97 276.88C396.4 285.81 396.62 290.28 396.62 290.28C399.82 290.28 403.02 290.28 406.22 290.28C406.22 290.28 405.99 285.49 405.52 275.91C404.18 266.49 402.74 251.92 395.49 234.18C388.64 216.43 375.83 195.63 354.73 176.97C343.97 167.95 331.09 159.71 316.07 153.61C301.07 147.53 283.9 143.72 265.45 143.68C265.45 147.02 265.45 150.35 265.45 153.68C282.66 153.73 298.65 157.28 312.61 162.94ZM125.38 275.91C126.72 266.49 128.16 251.92 135.41 234.18C142.26 216.43 155.07 195.63 176.17 176.97C186.93 167.95 199.81 159.71 214.83 153.61C229.83 147.53 247 143.72 265.45 143.68C265.45 140.35 265.45 137.02 265.45 133.68C245.77 133.72 227.4 137.79 211.38 144.28C195.32 150.79 181.56 159.6 170.07 169.24C147.52 189.15 133.88 211.39 126.55 230.35C118.81 249.31 117.23 264.87 115.82 274.94C115.33 285.16 115.08 290.28 115.08 290.28C118.28 290.28 121.48 290.28 124.68 290.28C124.68 290.28 124.91 285.49 125.38 275.91ZM124.68 290.28C121.48 290.28 118.28 290.28 115.08 290.28C115.08 290.31 115.08 290.33 115.08 290.36C118.28 290.36 121.48 290.36 124.68 290.36C124.68 290.33 124.68 290.31 124.68 290.28ZM211.56 425.78C194.54 418.44 178.94 407.57 165.91 394.01C152.89 380.43 142.45 364.18 135.41 346.45C128.34 328.73 124.71 309.55 124.68 290.36C121.48 290.36 118.28 290.36 115.08 290.36C115.11 310.84 118.99 331.35 126.54 350.28C134.07 369.23 145.22 386.58 159.12 401.08C173.04 415.56 189.7 427.17 207.89 435.01C226.06 442.88 245.75 446.92 265.41 446.95C265.41 443.62 265.41 440.29 265.41 436.95C246.99 436.92 228.58 433.14 211.56 425.78ZM265.41 436.95C265.41 440.29 265.41 443.62 265.41 446.95C265.44 446.95 265.46 446.95 265.49 446.95C265.49 443.62 265.49 440.29 265.49 436.95C265.46 436.95 265.44 436.95 265.41 436.95ZM395.49 346.45C388.45 364.18 378.01 380.43 364.99 394.01C351.95 407.57 336.35 418.44 319.33 425.78C302.32 433.14 283.91 436.92 265.49 436.95C265.49 440.29 265.49 443.62 265.49 446.95C285.15 446.92 304.84 442.88 323.01 435.01C341.2 427.17 357.86 415.56 371.78 401.08C385.68 386.58 396.83 369.23 404.36 350.28C411.91 331.35 415.79 310.84 415.82 290.36C412.62 290.36 409.42 290.36 406.22 290.36C406.19 309.55 402.56 328.73 395.49 346.45ZM406.22 290.36C409.42 290.36 412.62 290.36 415.82 290.36C415.82 290.33 415.82 290.31 415.82 290.28C412.62 290.28 409.42 290.28 406.22 290.28C406.22 290.31 406.22 290.33 406.22 290.36ZM316.07 153.61C331.09 159.71 343.97 167.95 354.73 176.97C375.83 195.63 388.64 216.43 395.49 234.18C402.74 251.92 404.18 266.49 405.52 275.91C405.99 285.49 406.22 290.28 406.22 290.28C409.42 290.28 412.62 290.28 415.82 290.28C415.82 290.28 415.57 285.16 415.08 274.94C413.67 264.87 412.09 249.31 404.35 230.35C397.02 211.39 383.38 189.15 360.83 169.24C349.34 159.6 335.58 150.79 319.52 144.28C303.5 137.79 285.13 133.72 265.45 133.68C265.45 137.02 265.45 140.35 265.45 143.68C283.9 143.72 301.07 147.53 316.07 153.61ZM115.82 274.94C117.23 264.87 118.81 249.31 126.55 230.35C133.88 211.39 147.52 189.15 170.07 169.24C181.56 159.6 195.32 150.79 211.38 144.28C227.4 137.79 245.77 133.72 265.45 133.68C265.45 130.35 265.45 127.02 265.45 123.68C244.54 123.72 224.97 128.04 207.92 134.96C190.83 141.88 176.19 151.26 163.98 161.51C139.98 182.67 125.5 206.35 117.68 226.51C109.46 246.7 107.74 263.25 106.27 273.97C105.74 284.84 105.48 290.27 105.48 290.27C108.68 290.28 111.88 290.28 115.08 290.28C115.08 290.28 115.33 285.16 115.82 274.94ZM115.08 290.28C111.88 290.28 108.68 290.28 105.48 290.27C105.48 290.3 105.48 290.33 105.48 290.36C108.68 290.36 111.88 290.36 115.08 290.36C115.08 290.33 115.08 290.31 115.08 290.28ZM207.89 435.01C189.7 427.17 173.04 415.56 159.12 401.08C145.22 386.58 134.07 369.23 126.54 350.28C118.99 331.35 115.11 310.84 115.08 290.36C111.88 290.36 108.68 290.36 105.48 290.36C105.51 312.12 109.64 333.96 117.68 354.11C125.69 374.28 137.55 392.73 152.33 408.15C167.13 423.55 184.85 435.9 204.21 444.25C223.55 452.62 244.52 456.92 265.41 456.95C265.41 453.62 265.41 450.29 265.41 446.95C245.75 446.92 226.06 442.88 207.89 435.01ZM265.41 446.95C265.41 450.29 265.41 453.62 265.41 456.95C265.43 456.95 265.46 456.95 265.49 456.95C265.49 453.62 265.49 450.29 265.49 446.95C265.46 446.95 265.44 446.95 265.41 446.95ZM404.36 350.28C396.83 369.23 385.68 386.58 371.78 401.08C357.86 415.56 341.2 427.17 323.01 435.01C304.84 442.88 285.15 446.92 265.49 446.95C265.49 450.29 265.49 453.62 265.49 456.95C286.38 456.92 307.35 452.62 326.69 444.25C346.05 435.9 363.77 423.55 378.57 408.15C393.35 392.73 405.21 374.28 413.22 354.11C421.26 333.96 425.39 312.12 425.42 290.36C422.22 290.36 419.02 290.36 415.82 290.36C415.79 310.84 411.91 331.35 404.36 350.28ZM415.82 290.36C419.02 290.36 422.22 290.36 425.42 290.36C425.42 290.33 425.42 290.3 425.42 290.27C422.22 290.28 419.02 290.28 415.82 290.28C415.82 290.31 415.82 290.33 415.82 290.36ZM319.52 144.28C335.58 150.79 349.34 159.6 360.83 169.24C383.38 189.15 397.02 211.39 404.35 230.35C412.09 249.31 413.67 264.87 415.08 274.94C415.57 285.16 415.82 290.28 415.82 290.28C419.02 290.28 422.22 290.28 425.42 290.27C425.42 290.27 425.16 284.84 424.63 273.97C423.16 263.25 421.44 246.7 413.22 226.51C405.4 206.35 390.92 182.67 366.92 161.51C354.71 151.26 340.07 141.88 322.98 134.96C305.93 128.04 286.36 123.72 265.45 123.68C265.45 127.02 265.45 130.35 265.45 133.68C285.13 133.72 303.5 137.79 319.52 144.28ZM106.27 273.97C107.74 263.25 109.46 246.7 117.68 226.51C125.5 206.35 139.98 182.67 163.98 161.51C176.19 151.26 190.83 141.88 207.92 134.96C224.97 128.04 244.54 123.72 265.45 123.68C265.45 120.35 265.45 117.02 265.45 113.68C243.3 113.72 222.55 118.3 204.46 125.63C186.34 132.96 170.82 142.91 157.89 153.78C132.43 176.19 117.11 201.3 108.81 222.68C100.11 244.09 98.25 261.64 96.71 272.99C96.16 284.51 95.88 290.27 95.88 290.27C99.08 290.27 102.28 290.27 105.48 290.27C105.48 290.27 105.74 284.84 106.27 273.97ZM105.48 290.27C102.28 290.27 99.08 290.27 95.88 290.27C95.88 290.3 95.88 290.34 95.88 290.37C99.08 290.37 102.28 290.37 105.48 290.36C105.48 290.33 105.48 290.3 105.48 290.27ZM204.21 444.25C184.85 435.9 167.13 423.55 152.33 408.15C137.55 392.73 125.69 374.28 117.68 354.11C109.64 333.96 105.51 312.12 105.48 290.36C102.28 290.37 99.08 290.37 95.88 290.37C95.91 313.41 100.28 336.58 108.81 357.95C117.3 379.33 129.88 398.89 145.55 415.22C161.23 431.54 180 444.64 200.53 453.49C221.04 462.37 243.28 466.93 265.4 466.95C265.4 463.62 265.4 460.29 265.41 456.95C244.52 456.92 223.55 452.62 204.21 444.25ZM265.41 456.95C265.4 460.29 265.4 463.62 265.4 466.95C265.43 466.95 265.46 466.95 265.5 466.95C265.49 463.62 265.49 460.29 265.49 456.95C265.46 456.95 265.43 456.95 265.41 456.95ZM413.22 354.11C405.21 374.28 393.35 392.73 378.57 408.15C363.77 423.55 346.05 435.9 326.69 444.25C307.35 452.62 286.38 456.92 265.49 456.95C265.49 460.29 265.49 463.62 265.5 466.95C287.61 466.93 309.86 462.37 330.37 453.49C350.9 444.64 369.67 431.54 385.35 415.22C401.02 398.89 413.59 379.33 422.09 357.95C430.62 336.58 434.99 313.41 435.02 290.37C431.82 290.37 428.62 290.37 425.42 290.36C425.39 312.12 421.26 333.96 413.22 354.11ZM425.42 290.36C428.62 290.37 431.82 290.37 435.02 290.37C435.02 290.34 435.02 290.3 435.02 290.27C431.82 290.27 428.62 290.27 425.42 290.27C425.42 290.3 425.42 290.33 425.42 290.36ZM322.98 134.96C340.07 141.88 354.71 151.26 366.92 161.51C390.92 182.67 405.4 206.35 413.22 226.51C421.44 246.7 423.16 263.25 424.63 273.97C425.16 284.84 425.42 290.27 425.42 290.27C428.62 290.27 431.82 290.27 435.02 290.27C435.02 290.27 434.74 284.51 434.18 272.99C432.65 261.64 430.79 244.09 422.09 222.68C413.79 201.3 398.47 176.19 373.01 153.78C360.08 142.91 344.56 132.96 326.43 125.63C308.35 118.3 287.6 113.72 265.45 113.68C265.45 117.02 265.45 120.35 265.45 123.68C286.36 123.72 305.93 128.04 322.98 134.96ZM96.71 272.99C98.25 261.64 100.11 244.09 108.81 222.68C117.11 201.3 132.43 176.19 157.89 153.78C170.82 142.91 186.34 132.96 204.46 125.63C222.55 118.3 243.3 113.72 265.45 113.68C265.45 113.68 265.45 110.35 265.45 103.68C242.07 103.72 220.12 108.55 201.01 116.3C181.85 124.05 165.45 134.56 151.79 146.06C124.89 169.71 108.73 196.26 99.95 218.85C90.76 241.49 88.76 260.02 87.16 272.02C86.47 284.18 86.28 290.27 86.28 290.27C92.68 290.27 95.88 290.27 95.88 290.27C95.88 290.27 96.16 284.51 96.71 272.99ZM95.88 290.27C95.88 290.27 92.68 290.27 86.28 290.27C86.28 290.3 86.28 290.34 86.28 290.37C92.68 290.37 95.88 290.37 95.88 290.37C95.88 290.34 95.88 290.3 95.88 290.27ZM200.53 453.49C180 444.64 161.23 431.54 145.55 415.22C129.88 398.89 117.3 379.33 108.81 357.95C100.28 336.58 95.91 313.41 95.88 290.37C95.88 290.37 92.68 290.37 86.28 290.37C86.3 314.69 90.93 339.2 99.94 361.78C108.92 384.38 122.21 405.04 138.76 422.29C155.32 439.53 175.15 453.37 196.85 462.72C218.53 472.11 242.05 476.93 265.4 476.95C265.4 470.29 265.4 466.95 265.4 466.95C243.28 466.93 221.04 462.37 200.53 453.49ZM265.4 466.95C265.4 466.95 265.4 470.29 265.4 476.95C265.43 476.95 265.47 476.95 265.5 476.95C265.5 470.29 265.5 466.95 265.5 466.95C265.46 466.95 265.43 466.95 265.4 466.95ZM422.09 357.95C413.59 379.33 401.02 398.89 385.35 415.22C369.67 431.54 350.9 444.64 330.37 453.49C309.86 462.37 287.61 466.93 265.5 466.95C265.5 466.95 265.5 470.29 265.5 476.95C288.85 476.93 312.37 472.11 334.05 462.72C355.74 453.37 375.58 439.53 392.14 422.29C408.69 405.04 421.98 384.38 430.96 361.78C439.97 339.2 444.6 314.69 444.62 290.37C438.22 290.37 435.02 290.37 435.02 290.37C434.99 313.41 430.62 336.58 422.09 357.95ZM435.02 290.37C435.02 290.37 438.22 290.37 444.62 290.37C444.62 290.34 444.62 290.3 444.62 290.27C438.22 290.27 435.02 290.27 435.02 290.27C435.02 290.3 435.02 290.34 435.02 290.37ZM326.43 125.63C344.56 132.96 360.08 142.91 373.01 153.78C398.47 176.19 413.79 201.3 422.09 222.68C430.79 244.09 432.65 261.64 434.18 272.99C434.74 284.51 435.02 290.27 435.02 290.27C435.02 290.27 438.22 290.27 444.62 290.27C444.62 290.27 444.43 284.18 443.74 272.02C442.14 260.02 440.14 241.49 430.95 218.85C422.17 196.26 406.01 169.71 379.11 146.06C365.45 134.56 349.05 124.05 329.89 116.3C310.78 108.55 288.83 103.72 265.45 103.68C265.45 110.35 265.45 113.68 265.45 113.68C287.6 113.72 308.35 118.3 326.43 125.63Z" />
					</g>
					<path id="&lt;Path&gt;" class="shp3" d="M265.45 143.68C187.7 143.68 124.68 209.34 124.68 290.32C124.68 371.3 187.7 436.95 265.45 436.95C343.19 436.95 406.22 371.3 406.22 290.32C406.22 209.34 343.19 143.68 265.45 143.68Z" />
				</g>
				<path id="&lt;Path&gt;" class="shp4" d="M265.45 122.43C187.7 122.43 124.68 188.08 124.68 269.06C124.68 350.05 187.7 415.7 265.45 415.7C343.19 415.7 406.22 350.05 406.22 269.06C406.22 188.08 343.19 122.43 265.45 122.43Z" />
				<path id="&lt;Path&gt;" class="shp1" d="M331.66 198.34L237.91 295.99L200.8 257.33L173.3 285.97L237.91 353.28L359.15 226.98L331.66 198.34Z" />
			</g>
		</g>
	</g>
	<path id="Task List " fill="#ffffff" aria-label="Task List"  d="M847.23 226.6L847.23 169L677.89 169L677.89 226.6L728 226.6L728 394L797.12 394L797.12 226.6L847.23 226.6ZM948.03 208.6Q1030.98 208.6 1030.98 268L1030.98 394L996.42 394L976.83 373.6Q971.65 379.6 964.45 384.4Q957.54 389.2 949.47 392.5Q941.41 395.8 933.06 397.6Q924.7 399.4 916.93 399.4Q902.24 399.4 890.43 396.4Q878.91 393.1 870.85 386.2Q862.78 379.3 858.46 367.9Q854.14 356.5 854.14 340Q854.14 275.2 948.03 275.2L961.86 275.2L961.86 262.3Q956.38 262 951.78 261.7Q947.46 261.4 943.71 261.4Q904.83 261.4 876.61 271.3L868.26 219.7Q902.82 208.6 948.03 208.6ZM923.84 332.2L923.84 346.9L938.24 346.9Q953.22 346.9 957.82 343.3Q961.86 339.4 961.86 334L961.86 316.9L947.74 316.9Q935.36 316.9 929.6 319.6Q923.84 322.3 923.84 332.2ZM1078.78 221.2Q1100.96 208.6 1139.55 208.6Q1178.43 208.6 1210.69 219.7L1202.62 268.6Q1189.09 264.4 1175.84 262.6Q1162.59 260.8 1148.77 260.8Q1144.74 260.8 1138.69 261.1Q1132.93 261.4 1125.44 262.3L1125.44 273.7Q1141.28 273.7 1157.98 275.5Q1174.69 277 1188.22 283.3Q1202.05 289.3 1210.69 301.6Q1219.62 313.6 1219.62 334.6Q1219.62 349.3 1216.45 361Q1213.28 372.4 1206.66 379.3Q1199.74 386.2 1192.26 390.4Q1185.06 394.6 1173.25 396.4Q1164.03 397.9 1153.38 398.8Q1143.01 399.4 1130.91 399.4Q1088.58 399.4 1053.44 388.9L1062.08 337.9Q1076.77 342.4 1092.32 344.8Q1107.87 347.2 1124.86 347.2Q1132.64 347.2 1139.55 346.9Q1146.75 346.6 1153.38 345.7L1153.38 334.3Q1125.73 334.3 1107.01 330.7Q1088.58 326.8 1077.06 319Q1065.82 311.2 1060.93 298.6Q1056.32 286 1056.32 268.6Q1056.32 233.8 1078.78 221.2ZM1342.02 394L1416.61 394L1374.85 299.8L1414.88 214L1340.29 214L1315.23 273.4L1312.93 273.4L1312.93 154.6L1243.81 160L1243.81 394L1312.93 394L1312.93 322.6L1315.23 322.6L1342.02 394ZM1661.98 394L1661.98 336.4L1592.86 336.4L1592.86 169L1523.74 169L1523.74 394L1661.98 394ZM1750.11 214L1750.11 394L1680.99 394L1680.99 223L1750.11 214ZM1677.25 180.1Q1677.25 172 1678.98 166.6Q1680.7 160.9 1685.02 157.6Q1689.34 154 1696.83 152.5Q1704.32 151 1715.84 151Q1727.36 151 1734.56 152.5Q1742.05 154 1746.37 157.6Q1750.69 160.9 1752.42 166.6Q1754.14 172 1754.14 180.1Q1754.14 188.2 1752.42 193.6Q1750.69 199 1746.37 202.6Q1742.05 205.9 1734.56 207.4Q1727.36 208.6 1715.84 208.6Q1707.49 208.6 1700.29 208Q1693.38 207.4 1688.19 204.7Q1683.01 201.7 1680.13 196Q1677.25 190.3 1677.25 180.1ZM1801.38 221.2Q1823.55 208.6 1862.14 208.6Q1901.02 208.6 1933.28 219.7L1925.22 268.6Q1911.68 264.4 1898.43 262.6Q1885.18 260.8 1871.36 260.8Q1867.33 260.8 1861.28 261.1Q1855.52 261.4 1848.03 262.3L1848.03 273.7Q1863.87 273.7 1880.58 275.5Q1897.28 277 1910.82 283.3Q1924.64 289.3 1933.28 301.6Q1942.21 313.6 1942.21 334.6Q1942.21 349.3 1939.04 361Q1935.87 372.4 1929.25 379.3Q1922.34 386.2 1914.85 390.4Q1907.65 394.6 1895.84 396.4Q1886.62 397.9 1875.97 398.8Q1865.6 399.4 1853.5 399.4Q1811.17 399.4 1776.03 388.9L1784.67 337.9Q1799.36 342.4 1814.91 344.8Q1830.46 347.2 1847.46 347.2Q1855.23 347.2 1862.14 346.9Q1869.34 346.6 1875.97 345.7L1875.97 334.3Q1848.32 334.3 1829.6 330.7Q1811.17 326.8 1799.65 319Q1788.42 311.2 1783.52 298.6Q1778.91 286 1778.91 268.6Q1778.91 233.8 1801.38 221.2ZM1973.31 360.1L1973.31 260.5L1956.03 260.5L1956.03 214L1973.31 214L1973.31 185.2L2042.43 167.2L2042.43 214L2066.34 214L2066.34 260.5L2042.43 260.5L2042.43 342.4Q2046.75 343.3 2051.94 344.2Q2057.12 344.8 2062.88 345.1L2059.71 397.9Q2012.48 397.9 1998.08 392.5Q1985.98 388 1979.65 381.1Q1973.31 373.9 1973.31 360.1Z" />
</svg>