<svg version="1.2" baseProfile="tiny-ps" xmlns="http://www.w3.org/2000/svg" viewBox="0 0 100 29" width="100" height="29">
	<title>SL_112520_38300_10-ai</title>
	<defs>
		<linearGradient id="grd1" gradientUnits="userSpaceOnUse"  x1="12.64" y1="8.878" x2="12.64" y2="6.945">
			<stop offset="0" stop-color="#ffffff"  />
			<stop offset="1" stop-color="#595959"  />
		</linearGradient>
	</defs>
	<style>
		tspan { white-space:pre }
		.shp0 { fill: #4d9c00 } 
		.shp1 { fill: #61c200 } 
		.shp2 { fill: url(#grd1) } 
		.shp3 { fill: #595959 } 
		.shp4 { fill: #ffffff } 
	</style>
	<g id="Layer 1">
		<g id="&lt;Group&gt;">
			<g id="&lt;Group&gt;">
				<path id="&lt;Path&gt;" class="shp0" d="M11.38 27.05C12.07 27.79 13.21 27.79 13.9 27.05L24.43 15.93C24.78 15.56 24.95 15.07 24.95 14.59L24.95 14.59C24.95 13.53 24.95 13 24.95 13C24.95 12.52 24.78 12.04 24.43 11.67L13.9 0.54C13.6 0.22 13.22 0.04 12.82 0C12.3 -0.06 11.77 0.12 11.38 0.54L0.85 11.67C0.5 12.04 0.33 12.52 0.33 13C0.33 14.06 0.33 14.59 0.33 14.59C0.33 15.07 0.5 15.56 0.85 15.93L11.38 27.05Z" />
				<path id="&lt;Path&gt;" class="shp1" d="M13.9 0.54C13.21 -0.2 12.07 -0.2 11.38 0.54L0.85 11.67C0.15 12.41 0.15 13.6 0.85 14.34L11.38 25.47C12.07 26.21 13.21 26.21 13.9 25.47L24.43 14.34C25.13 13.6 25.13 12.41 24.43 11.67L13.9 0.54Z" />
				<g id="&lt;Group&gt;" style="opacity: 0.2">
					<g id="&lt;Group&gt;">
						<path id="&lt;Mesh&gt;" class="shp2" d="M7.79 13.52C7.84 13.19 7.88 12.68 8.14 12.06C8.37 11.44 8.82 10.71 9.55 10.05C10.29 9.42 11.35 8.88 12.64 8.88C12.64 8.56 12.64 8.39 12.64 8.39C11.23 8.4 10.07 8.98 9.26 9.67C8.46 10.4 7.97 11.19 7.71 11.87C7.44 12.55 7.39 13.11 7.34 13.48C7.32 13.85 7.31 14.03 7.31 14.03C7.31 14.03 7.46 14.03 7.77 14.03C7.77 14.03 7.78 13.86 7.79 13.52ZM7.77 14.03C7.46 14.03 7.31 14.03 7.31 14.03C7.31 14.03 7.31 14.03 7.31 14.03C7.31 14.03 7.46 14.03 7.77 14.03L7.77 14.03ZM9.19 17.68C8.28 16.72 7.76 15.39 7.77 14.03C7.46 14.03 7.31 14.03 7.31 14.03C7.31 15.52 7.88 16.97 8.87 18.02C9.86 19.07 11.24 19.67 12.64 19.67C12.64 19.67 12.64 19.51 12.64 19.19C11.36 19.19 10.1 18.64 9.19 17.68ZM12.64 19.19C12.64 19.51 12.64 19.67 12.64 19.67C12.64 19.67 12.64 19.67 12.64 19.67C12.64 19.67 12.64 19.51 12.64 19.19L12.64 19.19ZM16.09 17.68C15.18 18.64 13.93 19.19 12.64 19.19C12.64 19.51 12.64 19.67 12.64 19.67C14.04 19.67 15.42 19.07 16.41 18.02C17.4 16.97 17.98 15.52 17.97 14.03C17.97 14.03 17.82 14.03 17.52 14.03C17.52 15.39 17 16.72 16.09 17.68ZM17.52 14.03C17.82 14.03 17.97 14.03 17.97 14.03C17.97 14.03 17.97 14.03 17.97 14.03C17.97 14.03 17.82 14.03 17.52 14.03L17.52 14.03ZM15.73 10.05C16.46 10.71 16.91 11.44 17.14 12.06C17.4 12.68 17.44 13.19 17.49 13.52C17.5 13.86 17.52 14.03 17.52 14.03C17.82 14.03 17.97 14.03 17.97 14.03C17.97 14.03 17.96 13.85 17.95 13.48C17.89 13.11 17.84 12.55 17.57 11.87C17.31 11.19 16.82 10.4 16.02 9.67C15.21 8.98 14.05 8.4 12.64 8.39C12.64 8.39 12.64 8.56 12.64 8.88C13.93 8.88 14.99 9.42 15.73 10.05ZM7.34 13.48C7.39 13.11 7.44 12.55 7.71 11.87C7.97 11.19 8.46 10.4 9.26 9.67C10.07 8.98 11.23 8.4 12.64 8.39C12.64 8.23 12.64 8.07 12.64 7.91C11.88 7.91 11.18 8.07 10.56 8.33C9.94 8.58 9.41 8.92 8.97 9.3C8.1 10.08 7.57 10.95 7.29 11.69C6.99 12.43 6.94 13.04 6.88 13.43C6.86 13.83 6.85 14.03 6.85 14.03C7 14.03 7.16 14.03 7.31 14.03C7.31 14.03 7.32 13.85 7.34 13.48ZM7.31 14.03C7.16 14.03 7 14.03 6.85 14.03C6.85 14.03 6.85 14.03 6.85 14.03C7 14.03 7.16 14.03 7.31 14.03C7.31 14.03 7.31 14.03 7.31 14.03ZM8.87 18.02C7.88 16.97 7.31 15.52 7.31 14.03C7.16 14.03 7 14.03 6.85 14.03C6.85 15.64 7.47 17.23 8.55 18.36C9.62 19.5 11.12 20.16 12.64 20.15C12.64 19.99 12.64 19.83 12.64 19.67C11.24 19.67 9.86 19.07 8.87 18.02ZM12.64 19.67C12.64 19.83 12.64 19.99 12.64 20.15C12.64 20.15 12.64 20.15 12.64 20.15C12.64 19.99 12.64 19.83 12.64 19.67C12.64 19.67 12.64 19.67 12.64 19.67ZM16.41 18.02C15.42 19.07 14.04 19.67 12.64 19.67C12.64 19.83 12.64 19.99 12.64 20.15C14.16 20.16 15.66 19.5 16.73 18.36C17.81 17.23 18.43 15.64 18.43 14.03C18.28 14.03 18.12 14.03 17.97 14.03C17.98 15.52 17.4 16.97 16.41 18.02ZM17.97 14.03C18.12 14.03 18.28 14.03 18.43 14.03C18.43 14.03 18.43 14.03 18.43 14.03C18.28 14.03 18.12 14.03 17.97 14.03C17.97 14.03 17.97 14.03 17.97 14.03ZM16.02 9.67C16.82 10.4 17.31 11.19 17.57 11.87C17.84 12.55 17.89 13.11 17.95 13.48C17.96 13.85 17.97 14.03 17.97 14.03C18.12 14.03 18.28 14.03 18.43 14.03C18.43 14.03 18.42 13.83 18.4 13.43C18.34 13.04 18.29 12.43 17.99 11.69C17.71 10.95 17.18 10.08 16.31 9.3C15.87 8.92 15.34 8.58 14.72 8.33C14.11 8.07 13.4 7.91 12.64 7.91C12.64 8.07 12.64 8.23 12.64 8.39C14.05 8.4 15.21 8.98 16.02 9.67ZM6.88 13.43C6.94 13.04 6.99 12.43 7.29 11.69C7.57 10.95 8.1 10.08 8.97 9.3C9.41 8.92 9.94 8.58 10.56 8.33C11.18 8.07 11.88 7.91 12.64 7.91C12.64 7.75 12.64 7.59 12.64 7.43C11.82 7.43 11.06 7.6 10.39 7.88C9.73 8.15 9.16 8.52 8.68 8.93C7.74 9.77 7.17 10.7 6.87 11.5C6.55 12.3 6.49 12.96 6.43 13.38C6.4 13.81 6.39 14.03 6.39 14.03C6.55 14.03 6.7 14.03 6.85 14.03C6.85 14.03 6.86 13.83 6.88 13.43ZM6.85 14.03C6.7 14.03 6.55 14.03 6.39 14.03C6.39 14.03 6.39 14.03 6.39 14.03C6.55 14.03 6.7 14.03 6.85 14.03C6.85 14.03 6.85 14.03 6.85 14.03ZM8.55 18.36C7.47 17.23 6.85 15.64 6.85 14.03C6.7 14.03 6.55 14.03 6.39 14.03C6.4 14.9 6.56 15.76 6.87 16.56C7.18 17.36 7.65 18.09 8.22 18.7C8.8 19.31 9.49 19.8 10.25 20.13C11 20.46 11.82 20.63 12.64 20.64C12.64 20.47 12.64 20.31 12.64 20.15C11.12 20.16 9.62 19.5 8.55 18.36ZM12.64 20.15C12.64 20.31 12.64 20.47 12.64 20.64C12.64 20.64 12.64 20.64 12.64 20.64C12.64 20.47 12.64 20.31 12.64 20.15C12.64 20.15 12.64 20.15 12.64 20.15ZM16.73 18.36C15.66 19.5 14.16 20.16 12.64 20.15C12.64 20.31 12.64 20.47 12.64 20.64C13.46 20.63 14.28 20.46 15.03 20.13C15.79 19.8 16.48 19.31 17.06 18.7C17.64 18.09 18.1 17.36 18.41 16.56C18.72 15.76 18.89 14.9 18.89 14.03C18.73 14.03 18.58 14.03 18.43 14.03C18.43 15.64 17.81 17.23 16.73 18.36ZM18.43 14.03C18.58 14.03 18.73 14.03 18.89 14.03C18.89 14.03 18.89 14.03 18.89 14.03C18.73 14.03 18.58 14.03 18.43 14.03C18.43 14.03 18.43 14.03 18.43 14.03ZM14.72 8.33C15.34 8.58 15.87 8.92 16.31 9.3C17.18 10.08 17.71 10.95 17.99 11.69C18.29 12.43 18.34 13.04 18.4 13.43C18.42 13.83 18.43 14.03 18.43 14.03C18.58 14.03 18.73 14.03 18.89 14.03C18.89 14.03 18.88 13.81 18.86 13.38C18.79 12.96 18.73 12.3 18.41 11.5C18.11 10.7 17.54 9.77 16.6 8.93C16.12 8.52 15.55 8.15 14.89 7.88C14.22 7.6 13.46 7.43 12.64 7.43C12.64 7.59 12.64 7.75 12.64 7.91C13.4 7.91 14.11 8.07 14.72 8.33ZM6.43 13.38C6.49 12.96 6.55 12.3 6.87 11.5C7.17 10.7 7.74 9.77 8.68 8.93C9.16 8.52 9.73 8.15 10.39 7.88C11.06 7.6 11.82 7.43 12.64 7.43C12.64 7.27 12.64 7.11 12.64 6.94C11.76 6.95 10.94 7.13 10.23 7.42C9.51 7.72 8.9 8.12 8.39 8.55C7.38 9.46 6.77 10.46 6.45 11.32C6.1 12.18 6.03 12.88 5.97 13.34C5.95 13.8 5.94 14.03 5.94 14.03C6.09 14.03 6.24 14.03 6.39 14.03C6.39 14.03 6.4 13.81 6.43 13.38ZM6.39 14.03C6.24 14.03 6.09 14.03 5.94 14.03C5.94 14.03 5.94 14.03 5.94 14.03C6.09 14.03 6.24 14.03 6.39 14.03C6.39 14.03 6.39 14.03 6.39 14.03ZM10.25 20.13C9.49 19.8 8.8 19.31 8.22 18.7C7.65 18.09 7.18 17.36 6.87 16.56C6.56 15.76 6.4 14.9 6.39 14.03C6.24 14.03 6.09 14.03 5.94 14.03C5.94 14.96 6.11 15.89 6.45 16.75C6.78 17.6 7.28 18.39 7.9 19.04C8.52 19.7 9.26 20.22 10.07 20.58C10.88 20.94 11.76 21.12 12.64 21.12C12.64 20.96 12.64 20.8 12.64 20.64C11.82 20.63 11 20.46 10.25 20.13ZM12.64 20.64C12.64 20.8 12.64 20.96 12.64 21.12C12.64 21.12 12.64 21.12 12.64 21.12C12.64 20.96 12.64 20.8 12.64 20.64C12.64 20.64 12.64 20.64 12.64 20.64ZM18.41 16.56C18.1 17.36 17.64 18.09 17.06 18.7C16.48 19.31 15.79 19.8 15.03 20.13C14.28 20.46 13.46 20.63 12.64 20.64C12.64 20.8 12.64 20.96 12.64 21.12C13.52 21.12 14.4 20.94 15.21 20.58C16.02 20.22 16.76 19.7 17.38 19.04C18 18.39 18.5 17.6 18.83 16.75C19.17 15.89 19.34 14.96 19.34 14.03C19.19 14.03 19.04 14.03 18.89 14.03C18.89 14.9 18.72 15.76 18.41 16.56ZM18.89 14.03C19.04 14.03 19.19 14.03 19.34 14.03C19.34 14.03 19.34 14.03 19.34 14.03C19.19 14.03 19.04 14.03 18.89 14.03C18.89 14.03 18.89 14.03 18.89 14.03ZM14.89 7.88C15.55 8.15 16.12 8.52 16.6 8.93C17.54 9.77 18.11 10.7 18.41 11.5C18.73 12.3 18.79 12.96 18.86 13.38C18.88 13.81 18.89 14.03 18.89 14.03C19.04 14.03 19.19 14.03 19.34 14.03C19.34 14.03 19.33 13.8 19.31 13.34C19.25 12.88 19.18 12.18 18.83 11.32C18.51 10.46 17.9 9.46 16.89 8.55C16.38 8.12 15.77 7.72 15.05 7.42C14.34 7.13 13.52 6.95 12.64 6.94C12.64 7.11 12.64 7.27 12.64 7.43C13.46 7.43 14.22 7.6 14.89 7.88ZM5.97 13.34C6.03 12.88 6.1 12.18 6.45 11.32C6.77 10.46 7.38 9.46 8.39 8.55C8.9 8.12 9.51 7.72 10.23 7.42C10.94 7.13 11.76 6.95 12.64 6.94C12.64 6.78 12.64 6.62 12.64 6.46C11.7 6.46 10.83 6.66 10.07 6.97C9.3 7.29 8.65 7.71 8.1 8.18C7.02 9.14 6.38 10.22 6.03 11.13C5.66 12.05 5.58 12.8 5.52 13.29C5.49 13.78 5.48 14.03 5.48 14.03C5.63 14.03 5.78 14.03 5.94 14.03C5.94 14.03 5.95 13.8 5.97 13.34ZM5.94 14.03C5.78 14.03 5.63 14.03 5.48 14.03C5.48 14.03 5.48 14.03 5.48 14.03C5.63 14.03 5.78 14.03 5.94 14.03C5.94 14.03 5.94 14.03 5.94 14.03ZM10.07 20.58C9.26 20.22 8.52 19.7 7.9 19.04C7.28 18.39 6.78 17.6 6.45 16.75C6.11 15.89 5.94 14.96 5.94 14.03C5.78 14.03 5.63 14.03 5.48 14.03C5.48 15.02 5.67 16.02 6.03 16.93C6.38 17.85 6.92 18.68 7.58 19.39C8.24 20.09 9.03 20.65 9.9 21.03C10.76 21.41 11.7 21.6 12.64 21.6C12.64 21.44 12.64 21.28 12.64 21.12C11.76 21.12 10.88 20.94 10.07 20.58ZM12.64 21.12C12.64 21.28 12.64 21.44 12.64 21.6C12.64 21.6 12.64 21.6 12.64 21.6C12.64 21.44 12.64 21.28 12.64 21.12C12.64 21.12 12.64 21.12 12.64 21.12ZM18.83 16.75C18.5 17.6 18 18.39 17.38 19.04C16.76 19.7 16.02 20.22 15.21 20.58C14.4 20.94 13.52 21.12 12.64 21.12C12.64 21.28 12.64 21.44 12.64 21.6C13.58 21.6 14.52 21.41 15.38 21.03C16.25 20.65 17.04 20.09 17.7 19.39C18.37 18.68 18.9 17.85 19.26 16.93C19.61 16.02 19.8 15.02 19.8 14.03C19.65 14.03 19.5 14.03 19.34 14.03C19.34 14.96 19.17 15.89 18.83 16.75ZM19.34 14.03C19.5 14.03 19.65 14.03 19.8 14.03C19.8 14.03 19.8 14.03 19.8 14.03C19.65 14.03 19.5 14.03 19.34 14.03C19.34 14.03 19.34 14.03 19.34 14.03ZM15.05 7.42C15.77 7.72 16.38 8.12 16.89 8.55C17.9 9.46 18.51 10.46 18.83 11.32C19.18 12.18 19.25 12.88 19.31 13.34C19.33 13.8 19.34 14.03 19.34 14.03C19.5 14.03 19.65 14.03 19.8 14.03C19.8 14.03 19.79 13.78 19.77 13.29C19.7 12.8 19.62 12.05 19.25 11.13C18.91 10.22 18.26 9.14 17.18 8.18C16.64 7.71 15.98 7.29 15.22 6.97C14.45 6.66 13.58 6.46 12.64 6.46C12.64 6.62 12.64 6.78 12.64 6.94C13.52 6.95 14.34 7.13 15.05 7.42ZM5.52 13.29C5.58 12.8 5.66 12.05 6.03 11.13C6.38 10.22 7.02 9.14 8.1 8.18C8.65 7.71 9.3 7.29 10.07 6.97C10.83 6.66 11.7 6.46 12.64 6.46C12.64 6.3 12.64 6.14 12.64 5.98C11.64 5.98 10.71 6.19 9.9 6.52C9.09 6.86 8.39 7.31 7.81 7.81C6.67 8.83 5.98 9.97 5.6 10.95C5.21 11.92 5.13 12.72 5.06 13.24C5.04 13.77 5.02 14.03 5.02 14.03C5.18 14.03 5.33 14.03 5.48 14.03C5.48 14.03 5.49 13.78 5.52 13.29ZM5.48 14.03C5.33 14.03 5.18 14.03 5.02 14.03C5.02 14.03 5.02 14.03 5.02 14.03C5.18 14.03 5.33 14.03 5.48 14.03C5.48 14.03 5.48 14.03 5.48 14.03ZM9.9 21.03C9.03 20.65 8.24 20.09 7.58 19.39C6.92 18.68 6.38 17.85 6.03 16.93C5.67 16.02 5.48 15.02 5.48 14.03C5.33 14.03 5.18 14.03 5.02 14.03C5.02 15.09 5.22 16.14 5.6 17.12C5.99 18.09 6.55 18.98 7.25 19.73C7.96 20.47 8.8 21.07 9.72 21.47C10.65 21.88 11.64 22.08 12.64 22.09C12.64 21.92 12.64 21.76 12.64 21.6C11.7 21.6 10.76 21.41 9.9 21.03ZM12.64 21.6C12.64 21.76 12.64 21.92 12.64 22.09C12.64 22.09 12.64 22.09 12.64 22.09C12.64 21.92 12.64 21.76 12.64 21.6C12.64 21.6 12.64 21.6 12.64 21.6ZM19.26 16.93C18.9 17.85 18.37 18.68 17.7 19.39C17.04 20.09 16.25 20.65 15.38 21.03C14.52 21.41 13.58 21.6 12.64 21.6C12.64 21.76 12.64 21.92 12.64 22.09C13.64 22.08 14.64 21.88 15.56 21.47C16.48 21.07 17.32 20.47 18.03 19.73C18.73 18.98 19.3 18.09 19.68 17.12C20.06 16.14 20.26 15.09 20.26 14.03C20.11 14.03 19.95 14.03 19.8 14.03C19.8 15.02 19.61 16.02 19.26 16.93ZM19.8 14.03C19.95 14.03 20.11 14.03 20.26 14.03C20.26 14.03 20.26 14.03 20.26 14.03C20.11 14.03 19.95 14.03 19.8 14.03C19.8 14.03 19.8 14.03 19.8 14.03ZM15.22 6.97C15.98 7.29 16.64 7.71 17.18 8.18C18.26 9.14 18.91 10.22 19.25 11.13C19.62 12.05 19.7 12.8 19.77 13.29C19.79 13.78 19.8 14.03 19.8 14.03C19.95 14.03 20.11 14.03 20.26 14.03C20.26 14.03 20.25 13.77 20.22 13.24C20.15 12.72 20.07 11.92 19.68 10.95C19.3 9.97 18.62 8.83 17.47 7.81C16.89 7.31 16.19 6.86 15.38 6.52C14.57 6.19 13.64 5.98 12.64 5.98C12.64 6.14 12.64 6.3 12.64 6.46C13.58 6.46 14.45 6.66 15.22 6.97ZM5.06 13.24C5.13 12.72 5.21 11.92 5.6 10.95C5.98 9.97 6.67 8.83 7.81 7.81C8.39 7.31 9.09 6.86 9.9 6.52C10.71 6.19 11.64 5.98 12.64 5.98C12.64 5.82 12.64 5.66 12.64 5.49C11.59 5.5 10.6 5.72 9.74 6.07C8.87 6.43 8.13 6.91 7.52 7.43C6.31 8.52 5.58 9.73 5.18 10.76C4.77 11.8 4.68 12.65 4.61 13.19C4.58 13.75 4.57 14.03 4.57 14.03C4.72 14.03 4.87 14.03 5.02 14.03C5.02 14.03 5.04 13.77 5.06 13.24ZM5.02 14.03C4.87 14.03 4.72 14.03 4.57 14.03C4.57 14.03 4.57 14.03 4.57 14.03C4.72 14.03 4.87 14.03 5.02 14.03C5.02 14.03 5.02 14.03 5.02 14.03ZM9.72 21.47C8.8 21.07 7.96 20.47 7.25 19.73C6.55 18.98 5.99 18.09 5.6 17.12C5.22 16.14 5.02 15.09 5.02 14.03C4.87 14.03 4.72 14.03 4.57 14.03C4.57 15.15 4.78 16.27 5.18 17.3C5.59 18.33 6.18 19.28 6.93 20.07C7.68 20.86 8.57 21.49 9.55 21.92C10.53 22.35 11.58 22.57 12.64 22.57C12.64 22.41 12.64 22.25 12.64 22.09C11.64 22.08 10.65 21.88 9.72 21.47ZM12.64 22.09C12.64 22.25 12.64 22.41 12.64 22.57C12.64 22.57 12.64 22.57 12.64 22.57C12.64 22.41 12.64 22.25 12.64 22.09C12.64 22.09 12.64 22.09 12.64 22.09ZM19.68 17.12C19.3 18.09 18.73 18.98 18.03 19.73C17.32 20.47 16.48 21.07 15.56 21.47C14.64 21.88 13.64 22.08 12.64 22.09C12.64 22.25 12.64 22.41 12.64 22.57C13.7 22.57 14.76 22.35 15.73 21.92C16.71 21.49 17.6 20.86 18.35 20.07C19.1 19.28 19.69 18.33 20.1 17.3C20.51 16.27 20.71 15.15 20.72 14.03C20.56 14.03 20.41 14.03 20.26 14.03C20.26 15.09 20.06 16.14 19.68 17.12ZM20.26 14.03C20.41 14.03 20.56 14.03 20.72 14.03C20.72 14.03 20.72 14.03 20.72 14.03C20.56 14.03 20.41 14.03 20.26 14.03C20.26 14.03 20.26 14.03 20.26 14.03ZM15.38 6.52C16.19 6.86 16.89 7.31 17.47 7.81C18.62 8.83 19.3 9.97 19.68 10.95C20.07 11.92 20.15 12.72 20.22 13.24C20.25 13.77 20.26 14.03 20.26 14.03C20.41 14.03 20.56 14.03 20.72 14.03C20.72 14.03 20.7 13.75 20.68 13.19C20.6 12.65 20.51 11.8 20.1 10.76C19.7 9.73 18.97 8.52 17.76 7.43C17.15 6.91 16.41 6.43 15.54 6.07C14.68 5.72 13.7 5.5 12.64 5.49C12.64 5.66 12.64 5.82 12.64 5.98C13.64 5.98 14.57 6.19 15.38 6.52ZM4.61 13.19C4.68 12.65 4.77 11.8 5.18 10.76C5.58 9.73 6.31 8.52 7.52 7.43C8.13 6.91 8.87 6.43 9.74 6.07C10.6 5.72 11.59 5.5 12.64 5.49C12.64 5.49 12.64 5.33 12.64 5.01C11.53 5.01 10.48 5.25 9.57 5.62C8.66 6 7.88 6.5 7.23 7.06C5.95 8.2 5.18 9.49 4.76 10.58C4.32 11.67 4.23 12.57 4.15 13.15C4.12 13.74 4.11 14.03 4.11 14.03C4.41 14.03 4.57 14.03 4.57 14.03C4.57 14.03 4.58 13.75 4.61 13.19ZM4.57 14.03C4.57 14.03 4.41 14.03 4.11 14.03C4.11 14.03 4.11 14.03 4.11 14.03C4.41 14.03 4.57 14.03 4.57 14.03C4.57 14.03 4.57 14.03 4.57 14.03ZM9.55 21.92C8.57 21.49 7.68 20.86 6.93 20.07C6.18 19.28 5.59 18.33 5.18 17.3C4.78 16.27 4.57 15.15 4.57 14.03C4.57 14.03 4.41 14.03 4.11 14.03C4.11 15.21 4.33 16.39 4.76 17.49C5.19 18.58 5.82 19.58 6.61 20.41C7.4 21.24 8.34 21.91 9.37 22.37C10.41 22.82 11.53 23.05 12.64 23.05C12.64 22.73 12.64 22.57 12.64 22.57C11.58 22.57 10.53 22.35 9.55 21.92ZM12.64 22.57C12.64 22.57 12.64 22.73 12.64 23.05C12.64 23.05 12.64 23.05 12.64 23.05C12.64 22.73 12.64 22.57 12.64 22.57C12.64 22.57 12.64 22.57 12.64 22.57ZM20.1 17.3C19.69 18.33 19.1 19.28 18.35 20.07C17.6 20.86 16.71 21.49 15.73 21.92C14.76 22.35 13.7 22.57 12.64 22.57C12.64 22.57 12.64 22.73 12.64 23.05C13.75 23.05 14.87 22.82 15.91 22.37C16.94 21.91 17.88 21.24 18.67 20.41C19.46 19.58 20.09 18.58 20.52 17.49C20.95 16.39 21.17 15.21 21.17 14.03C20.87 14.03 20.72 14.03 20.72 14.03C20.71 15.15 20.51 16.27 20.1 17.3ZM20.72 14.03C20.72 14.03 20.87 14.03 21.17 14.03C21.17 14.03 21.17 14.03 21.17 14.03C20.87 14.03 20.72 14.03 20.72 14.03C20.72 14.03 20.72 14.03 20.72 14.03ZM15.54 6.07C16.41 6.43 17.15 6.91 17.76 7.43C18.97 8.52 19.7 9.73 20.1 10.76C20.51 11.8 20.6 12.65 20.68 13.19C20.7 13.75 20.72 14.03 20.72 14.03C20.72 14.03 20.87 14.03 21.17 14.03C21.17 14.03 21.16 13.74 21.13 13.15C21.05 12.57 20.96 11.67 20.52 10.58C20.1 9.49 19.33 8.2 18.05 7.06C17.4 6.5 16.62 6 15.71 5.62C14.8 5.25 13.75 5.01 12.64 5.01C12.64 5.33 12.64 5.49 12.64 5.49C13.7 5.5 14.68 5.72 15.54 6.07Z" />
					</g>
					<path id="&lt;Path&gt;" class="shp3" d="M12.64 6.94C8.94 6.94 5.94 10.12 5.94 14.03C5.94 17.95 8.94 21.12 12.64 21.12C16.34 21.12 19.34 17.95 19.34 14.03C19.34 10.12 16.34 6.94 12.64 6.94Z" />
				</g>
				<path id="&lt;Path&gt;" class="shp4" d="M12.64 5.92C8.94 5.92 5.94 9.09 5.94 13C5.94 16.92 8.94 20.09 12.64 20.09C16.34 20.09 19.34 16.92 19.34 13C19.34 9.09 16.34 5.92 12.64 5.92Z" />
				<path id="&lt;Path&gt;" class="shp1" d="M15.79 9.59L11.33 14.31L9.56 12.44L8.25 13.82L11.33 17.07L17.1 10.97L15.79 9.59Z" />
			</g>
		</g>
	</g>
	<path id="Task List " fill="#ffffff" aria-label="Task List"  d="M40.34 10.91L40.34 8.13L32.28 8.13L32.28 10.91L34.67 10.91L34.67 19L37.96 19L37.96 10.91L40.34 10.91ZM45.14 10.04Q49.09 10.04 49.09 12.91L49.09 19L47.45 19L46.52 18.01Q46.27 18.3 45.93 18.54Q45.6 18.77 45.21 18.93Q44.83 19.09 44.43 19.17Q44.03 19.26 43.66 19.26Q42.96 19.26 42.4 19.12Q41.85 18.96 41.47 18.62Q41.08 18.29 40.88 17.74Q40.67 17.19 40.67 16.39Q40.67 13.26 45.14 13.26L45.8 13.26L45.8 12.63Q45.54 12.62 45.32 12.61Q45.12 12.59 44.94 12.59Q43.09 12.59 41.74 13.07L41.35 10.58Q42.99 10.04 45.14 10.04ZM43.99 16.01L43.99 16.72L44.68 16.72Q45.39 16.72 45.61 16.55Q45.8 16.36 45.8 16.1L45.8 15.27L45.13 15.27Q44.54 15.27 44.27 15.4Q43.99 15.53 43.99 16.01ZM51.37 10.65Q52.43 10.04 54.26 10.04Q56.12 10.04 57.65 10.58L57.27 12.94Q56.62 12.74 55.99 12.65Q55.36 12.56 54.7 12.56Q54.51 12.56 54.22 12.58Q53.95 12.59 53.59 12.63L53.59 13.19Q54.35 13.19 55.14 13.27Q55.94 13.35 56.58 13.65Q57.24 13.94 57.65 14.53Q58.08 15.11 58.08 16.13Q58.08 16.84 57.93 17.41Q57.78 17.96 57.46 18.29Q57.13 18.62 56.77 18.83Q56.43 19.03 55.87 19.12Q55.43 19.19 54.92 19.23Q54.43 19.26 53.85 19.26Q51.84 19.26 50.16 18.75L50.58 16.29Q51.27 16.51 52.02 16.62Q52.76 16.74 53.56 16.74Q53.94 16.74 54.26 16.72Q54.61 16.71 54.92 16.67L54.92 16.11Q53.61 16.11 52.71 15.94Q51.84 15.75 51.29 15.38Q50.75 15 50.52 14.39Q50.3 13.78 50.3 12.94Q50.3 11.26 51.37 10.65ZM63.91 19L67.46 19L65.47 14.45L67.38 10.3L63.82 10.3L62.63 13.17L62.52 13.17L62.52 7.43L59.23 7.69L59.23 19L62.52 19L62.52 15.55L62.63 15.55L63.91 19ZM79.14 19L79.14 16.22L75.85 16.22L75.85 8.13L72.56 8.13L72.56 19L79.14 19ZM83.34 10.3L83.34 19L80.05 19L80.05 10.73L83.34 10.3ZM79.87 8.66Q79.87 8.27 79.95 8.01Q80.03 7.73 80.24 7.57Q80.44 7.4 80.8 7.33Q81.16 7.25 81.71 7.25Q82.26 7.25 82.6 7.33Q82.95 7.4 83.16 7.57Q83.37 7.73 83.45 8.01Q83.53 8.27 83.53 8.66Q83.53 9.05 83.45 9.31Q83.37 9.57 83.16 9.75Q82.95 9.91 82.6 9.98Q82.26 10.04 81.71 10.04Q81.31 10.04 80.97 10.01Q80.64 9.98 80.39 9.85Q80.14 9.71 80.01 9.43Q79.87 9.15 79.87 8.66ZM85.78 10.65Q86.84 10.04 88.67 10.04Q90.52 10.04 92.06 10.58L91.68 12.94Q91.03 12.74 90.4 12.65Q89.77 12.56 89.11 12.56Q88.92 12.56 88.63 12.58Q88.36 12.59 88 12.63L88 13.19Q88.76 13.19 89.55 13.27Q90.35 13.35 90.99 13.65Q91.65 13.94 92.06 14.53Q92.49 15.11 92.49 16.13Q92.49 16.84 92.34 17.41Q92.18 17.96 91.87 18.29Q91.54 18.62 91.18 18.83Q90.84 19.03 90.28 19.12Q89.84 19.19 89.33 19.23Q88.84 19.26 88.26 19.26Q86.25 19.26 84.57 18.75L84.98 16.29Q85.68 16.51 86.42 16.62Q87.16 16.74 87.97 16.74Q88.34 16.74 88.67 16.72Q89.02 16.71 89.33 16.67L89.33 16.11Q88.02 16.11 87.12 15.94Q86.25 15.75 85.7 15.38Q85.16 15 84.93 14.39Q84.71 13.78 84.71 12.94Q84.71 11.26 85.78 10.65ZM93.97 17.36L93.97 12.55L93.14 12.55L93.14 10.3L93.97 10.3L93.97 8.91L97.26 8.04L97.26 10.3L98.4 10.3L98.4 12.55L97.26 12.55L97.26 16.51Q97.46 16.55 97.71 16.59Q97.96 16.62 98.23 16.64L98.08 19.19Q95.83 19.19 95.15 18.93Q94.57 18.71 94.27 18.38Q93.97 18.03 93.97 17.36Z" />
</svg>